<?xml version="1.0" encoding="UTF-8" standalone="no"?> <!-- Created with Vectornator for iOS (http://vectornator.io/) --><!DOCTYPE svg PUBLIC "-//W3C//DTD SVG 1.1//EN" "http://www.w3.org/Graphics/SVG/1.1/DTD/svg11.dtd">
<svg height="100%" style="fill-rule:nonzero;clip-rule:evenodd;stroke-linecap:round;stroke-linejoin:round;" xmlns:xlink="http://www.w3.org/1999/xlink" xmlns="http://www.w3.org/2000/svg" xml:space="preserve" width="100%" xmlns:vectornator="http://vectornator.io" version="1.1" viewBox="0 0 1920 1500">
<metadata>
<vectornator:setting key="DimensionsVisible" value="1"/>
<vectornator:setting key="PencilOnly" value="0"/>
<vectornator:setting key="SnapToPoints" value="0"/>
<vectornator:setting key="OutlineMode" value="0"/>
<vectornator:setting key="CMYKEnabledKey" value="0"/>
<vectornator:setting key="RulersVisible" value="1"/>
<vectornator:setting key="SnapToEdges" value="0"/>
<vectornator:setting key="GuidesVisible" value="1"/>
<vectornator:setting key="DisplayWhiteBackground" value="0"/>
<vectornator:setting key="doHistoryDisabled" value="0"/>
<vectornator:setting key="SnapToGuides" value="1"/>
<vectornator:setting key="TimeLapseWatermarkDisabled" value="0"/>
<vectornator:setting key="Units" value="Pixels"/>
<vectornator:setting key="DynamicGuides" value="0"/>
<vectornator:setting key="IsolateActiveLayer" value="0"/>
<vectornator:setting key="SnapToGrid" value="0"/>
</metadata>
<defs/>
<g id="큰 원" vectornator:layerName="큰 원">
<path d="M1613.06+735.312C1613.06+680.083+1568.29+635.312+1513.06+635.312C1457.83+635.312+1413.06+680.083+1413.06+735.312C1413.06+790.54+1457.83+835.312+1513.06+835.312C1568.29+835.312+1613.06+790.54+1613.06+735.312Z" opacity="1" fill="#b7cfec"/>
<path d="M1080.92+331.319C1080.92+276.09+1125.7+231.319+1180.92+231.319C1236.15+231.319+1280.92+276.09+1280.92+331.319C1280.92+386.547+1236.15+431.319+1180.92+431.319C1125.7+431.319+1080.92+386.547+1080.92+331.319Z" opacity="1" fill="#b7cfec"/>
<path d="M719.077+331.319C719.077+276.09+763.849+231.319+819.077+231.319C874.306+231.319+919.077+276.09+919.077+331.319C919.077+386.547+874.306+431.319+819.077+431.319C763.849+431.319+719.077+386.547+719.077+331.319Z" opacity="1" fill="#b7cfec"/>
<path d="M586.94+735.312C586.94+680.083+542.168+635.312+486.94+635.312C431.711+635.312+386.94+680.083+386.94+735.312C386.94+790.54+431.711+835.312+486.94+835.312C542.168+835.312+586.94+790.54+586.94+735.312Z" opacity="1" fill="#b7cfec"/>
<path d="M928.98+735.312C928.98+680.083+884.209+635.312+828.98+635.312C773.752+635.312+728.98+680.083+728.98+735.312C728.98+790.54+773.752+835.312+828.98+835.312C884.209+835.312+928.98+790.54+928.98+735.312Z" opacity="1" fill="#b7cfec"/>
<path d="M1271.02+735.312C1271.02+680.083+1226.25+635.312+1171.02+635.312C1115.79+635.312+1071.02+680.083+1071.02+735.312C1071.02+790.54+1115.79+835.312+1171.02+835.312C1226.25+835.312+1271.02+790.54+1271.02+735.312Z" opacity="1" fill="#b7cfec"/>
</g>
<g id="작은 원" vectornator:layerName="작은 원">
<path d="M399.262+735.312C399.262+686.987+438.438+647.812+486.762+647.812C535.087+647.812+574.262+686.987+574.262+735.312C574.262+783.637+535.087+822.812+486.762+822.812C438.438+822.812+399.262+783.637+399.262+735.312Z" opacity="1" fill="#e2e6f5"/>
<path d="M1424.52+735.312C1424.52+686.987+1463.69+647.812+1512.02+647.812C1560.34+647.812+1599.52+686.987+1599.52+735.312C1599.52+783.637+1560.34+822.812+1512.02+822.812C1463.69+822.812+1424.52+783.637+1424.52+735.312Z" opacity="1" fill="#e2e6f5"/>
<path d="M1082.77+735.312C1082.77+686.987+1121.94+647.812+1170.27+647.812C1218.59+647.812+1257.77+686.987+1257.77+735.312C1257.77+783.637+1218.59+822.812+1170.27+822.812C1121.94+822.812+1082.77+783.637+1082.77+735.312Z" opacity="1" fill="#e2e6f5"/>
<path d="M741.015+735.312C741.015+686.987+780.19+647.812+828.515+647.812C876.84+647.812+916.015+686.987+916.015+735.312C916.015+783.637+876.84+822.812+828.515+822.812C780.19+822.812+741.015+783.637+741.015+735.312Z" opacity="1" fill="#e2e6f5"/>
<path d="M731.974+331.319C731.974+282.994+771.149+243.819+819.474+243.819C867.799+243.819+906.974+282.994+906.974+331.319C906.974+379.644+867.799+418.819+819.474+418.819C771.149+418.819+731.974+379.644+731.974+331.319Z" opacity="1" fill="#e2e6f5"/>
<path d="M1094.33+331.319C1094.33+282.994+1133.51+243.819+1181.83+243.819C1230.16+243.819+1269.33+282.994+1269.33+331.319C1269.33+379.644+1230.16+418.819+1181.83+418.819C1133.51+418.819+1094.33+379.644+1094.33+331.319Z" opacity="1" fill="#e2e6f5"/>
</g>
<g id="선" vectornator:layerName="선">
<path stroke="#808080" stroke-width="3" d="M1080.97+331.339L919.072+331.339" fill="#ffffff" stroke-linecap="butt" opacity="1" stroke-linejoin="round"/>
<path stroke="#808080" stroke-width="3" d="M1000+538.964L1000.1+332.024" fill="#ffffff" stroke-linecap="butt" opacity="1" stroke-linejoin="round"/>
<path stroke="#808080" stroke-width="3" d="M1000.17+537.427L486.576+537.146" fill="#ffffff" stroke-linecap="butt" opacity="1" stroke-linejoin="round"/>
<path stroke="#808080" stroke-width="3" d="M1000.09+537.466L1513.42+537.638" fill="#ffffff" stroke-linecap="butt" opacity="1" stroke-linejoin="round"/>
<path stroke="#808080" stroke-width="3" d="M486.737+535.692L486.711+635.42" fill="#ffffff" stroke-linecap="butt" opacity="1" stroke-linejoin="round"/>
<path stroke="#808080" stroke-width="3" d="M828.742+635.624L828.719+537.661" fill="#ffffff" stroke-linecap="butt" opacity="1" stroke-linejoin="round"/>
<path stroke="#808080" stroke-width="3" d="M1170.56+635.457L1170.72+537.532" fill="#ffffff" stroke-linecap="butt" opacity="1" stroke-linejoin="round"/>
<path stroke="#808080" stroke-width="3" d="M1513.79+635.65L1513.36+536.13" fill="#ffffff" stroke-linecap="butt" opacity="1" stroke-linejoin="round"/>
</g>
<g id="글자" vectornator:layerName="글자">
<g opacity="1">
<path d="M785.789+342.94C785.789+342.58+785.969+342.4+786.329+342.4C787.697+342.448+789.131+342.46+790.631+342.436C792.131+342.412+793.637+342.376+795.149+342.328L795.149+339.232C794.309+339.064+793.535+338.806+792.827+338.458C792.119+338.11+791.507+337.678+790.991+337.162C790.475+336.646+790.073+336.064+789.785+335.416C789.497+334.768+789.353+334.06+789.353+333.292C789.353+332.404+789.563+331.582+789.983+330.826C790.403+330.07+790.973+329.428+791.693+328.9C792.413+328.372+793.253+327.958+794.213+327.658C795.173+327.358+796.193+327.208+797.273+327.208C798.377+327.208+799.415+327.358+800.387+327.658C801.359+327.958+802.205+328.372+802.925+328.9C803.645+329.428+804.209+330.07+804.617+330.826C805.025+331.582+805.229+332.404+805.229+333.292C805.229+334.06+805.073+334.768+804.761+335.416C804.449+336.064+804.023+336.64+803.483+337.144C802.943+337.648+802.307+338.074+801.575+338.422C800.843+338.77+800.045+339.016+799.181+339.16L799.181+342.148C800.765+342.052+802.307+341.944+803.807+341.824C805.307+341.704+806.693+341.548+807.965+341.356C808.085+341.332+808.223+341.338+808.379+341.374C808.535+341.41+808.625+341.524+808.649+341.716L808.865+343.984C808.889+344.176+808.853+344.32+808.757+344.416C808.661+344.512+808.553+344.572+808.433+344.596C807.089+344.812+805.505+345.004+803.681+345.172C801.857+345.34+799.943+345.478+797.939+345.586C795.935+345.694+793.925+345.772+791.909+345.82C789.893+345.868+788.033+345.88+786.329+345.856C786.161+345.856+786.029+345.802+785.933+345.694C785.837+345.586+785.789+345.46+785.789+345.316L785.789+342.94ZM814.301+351.22C814.301+351.532+814.133+351.688+813.797+351.688L810.629+351.688C810.509+351.688+810.395+351.646+810.287+351.562C810.179+351.478+810.125+351.364+810.125+351.22L810.125+317.992C810.125+317.872+810.179+317.764+810.287+317.668C810.395+317.572+810.509+317.524+810.629+317.524L813.797+317.524C814.133+317.524+814.301+317.68+814.301+317.992L814.301+351.22ZM807.101+325.408C807.101+325.552+807.047+325.678+806.939+325.786C806.831+325.894+806.705+325.948+806.561+325.948L787.517+325.948C787.397+325.948+787.277+325.888+787.157+325.768C787.037+325.648+786.977+325.516+786.977+325.372L786.977+323.356C786.977+323.236+787.043+323.116+787.175+322.996C787.307+322.876+787.433+322.816+787.553+322.816L806.561+322.816C806.705+322.816+806.831+322.87+806.939+322.978C807.047+323.086+807.101+323.212+807.101+323.356L807.101+325.408ZM797.273+330.412C796.121+330.412+795.161+330.682+794.393+331.222C793.625+331.762+793.241+332.452+793.241+333.292C793.241+334.132+793.619+334.828+794.375+335.38C795.131+335.932+796.097+336.208+797.273+336.208C798.473+336.208+799.451+335.932+800.207+335.38C800.963+334.828+801.341+334.132+801.341+333.292C801.341+332.452+800.963+331.762+800.207+331.222C799.451+330.682+798.473+330.412+797.273+330.412ZM802.457+320.728C802.457+320.896+802.403+321.04+802.295+321.16C802.187+321.28+802.049+321.34+801.881+321.34L792.341+321.34C792.245+321.34+792.125+321.292+791.981+321.196C791.837+321.1+791.765+320.956+791.765+320.764L791.765+318.676C791.765+318.508+791.837+318.376+791.981+318.28C792.125+318.184+792.245+318.136+792.341+318.136L801.881+318.136C802.025+318.136+802.157+318.196+802.277+318.316C802.397+318.436+802.457+318.568+802.457+318.712L802.457+320.728Z" opacity="1" fill="#110541"/>
<path d="M846.989+344.848C846.989+345.856+846.713+346.786+846.161+347.638C845.609+348.49+844.853+349.222+843.893+349.834C842.933+350.446+841.787+350.92+840.455+351.256C839.123+351.592+837.689+351.76+836.153+351.76C834.497+351.76+833.009+351.592+831.689+351.256C830.369+350.92+829.247+350.446+828.323+349.834C827.399+349.222+826.685+348.496+826.181+347.656C825.677+346.816+825.425+345.88+825.425+344.848C825.425+343.84+825.677+342.916+826.181+342.076C826.685+341.236+827.399+340.51+828.323+339.898C829.247+339.286+830.369+338.812+831.689+338.476C833.009+338.14+834.497+337.972+836.153+337.972C837.689+337.972+839.123+338.14+840.455+338.476C841.787+338.812+842.933+339.28+843.893+339.88C844.853+340.48+845.609+341.2+846.161+342.04C846.713+342.88+846.989+343.816+846.989+344.848ZM822.509+336.892C822.341+336.964+822.143+337+821.915+337C821.687+337+821.501+336.868+821.357+336.604L820.241+334.804C820.121+334.612+820.091+334.408+820.151+334.192C820.211+333.976+820.361+333.808+820.601+333.688C823.265+332.464+825.587+330.97+827.567+329.206C829.547+327.442+831.017+325.564+831.977+323.572C832.097+323.356+832.145+323.164+832.121+322.996C832.097+322.828+831.893+322.744+831.509+322.744L822.473+322.744C822.305+322.744+822.179+322.684+822.095+322.564C822.011+322.444+821.969+322.312+821.969+322.168L821.969+319.792C821.969+319.456+822.149+319.288+822.509+319.288L834.065+319.288C835.121+319.288+835.907+319.48+836.423+319.864C836.939+320.248+837.137+320.836+837.017+321.628C836.969+321.892+836.909+322.168+836.837+322.456C836.765+322.744+836.681+322.996+836.585+323.212C836.297+323.98+835.919+324.754+835.451+325.534C834.983+326.314+834.461+327.088+833.885+327.856C834.317+328.288+834.797+328.72+835.325+329.152C835.853+329.584+836.393+329.992+836.945+330.376C837.497+330.76+838.043+331.114+838.583+331.438C839.123+331.762+839.633+332.044+840.113+332.284C840.377+332.404+840.545+332.53+840.617+332.662C840.689+332.794+840.641+332.98+840.473+333.22L839.285+335.236C839.021+335.668+838.661+335.752+838.205+335.488C837.773+335.296+837.275+335.026+836.711+334.678C836.147+334.33+835.565+333.934+834.965+333.49C834.365+333.046+833.765+332.578+833.165+332.086C832.565+331.594+832.013+331.096+831.509+330.592C830.237+331.84+828.833+333.004+827.297+334.084C825.761+335.164+824.165+336.1+822.509+336.892ZM852.029+329.188C852.029+329.308+851.975+329.416+851.867+329.512C851.759+329.608+851.633+329.656+851.489+329.656L846.629+329.656L846.629+337C846.629+337.12+846.581+337.234+846.485+337.342C846.389+337.45+846.281+337.504+846.161+337.504L842.957+337.504C842.837+337.504+842.729+337.45+842.633+337.342C842.537+337.234+842.489+337.108+842.489+336.964L842.489+317.992C842.489+317.68+842.645+317.524+842.957+317.524L846.161+317.524C846.473+317.524+846.629+317.68+846.629+317.992L846.629+326.2L851.489+326.2C851.633+326.2+851.759+326.248+851.867+326.344C851.975+326.44+852.029+326.548+852.029+326.668L852.029+329.188ZM842.741+344.956C842.741+344.356+842.561+343.828+842.201+343.372C841.841+342.916+841.361+342.532+840.761+342.22C840.161+341.908+839.465+341.668+838.673+341.5C837.881+341.332+837.041+341.248+836.153+341.248C834.233+341.248+832.679+341.566+831.491+342.202C830.303+342.838+829.709+343.756+829.709+344.956C829.709+345.532+829.871+346.036+830.195+346.468C830.519+346.9+830.963+347.266+831.527+347.566C832.091+347.866+832.769+348.094+833.561+348.25C834.353+348.406+835.217+348.484+836.153+348.484C837.041+348.484+837.881+348.406+838.673+348.25C839.465+348.094+840.161+347.866+840.761+347.566C841.361+347.266+841.841+346.9+842.201+346.468C842.561+346.036+842.741+345.532+842.741+344.956Z" opacity="1" fill="#110541"/>
</g>
<g opacity="1">
<path d="M1155.56+325.552L1141.16+325.552L1141.16+328.468C1141.16+328.708+1141.2+328.858+1141.29+328.918C1141.37+328.978+1141.52+329.008+1141.74+329.008L1154.99+329.008C1155.2+329.008+1155.35+328.978+1155.44+328.918C1155.52+328.858+1155.56+328.708+1155.56+328.468L1155.56+325.552ZM1159.7+330.052C1159.7+330.844+1159.51+331.444+1159.13+331.852C1158.74+332.26+1158.03+332.464+1157+332.464L1139.76+332.464C1138.7+332.464+1137.98+332.284+1137.6+331.924C1137.21+331.564+1137.02+330.892+1137.02+329.908L1137.02+318.064C1137.02+317.944+1137.07+317.842+1137.17+317.758C1137.26+317.674+1137.37+317.632+1137.49+317.632L1140.66+317.632C1140.78+317.632+1140.89+317.674+1141+317.758C1141.11+317.842+1141.16+317.944+1141.16+318.064L1141.16+322.132L1155.56+322.132L1155.56+318.1C1155.56+317.98+1155.61+317.872+1155.71+317.776C1155.8+317.68+1155.91+317.632+1156.03+317.632L1159.23+317.632C1159.35+317.632+1159.46+317.68+1159.56+317.776C1159.65+317.872+1159.7+317.98+1159.7+318.1L1159.7+330.052ZM1164.6+339.412C1164.6+339.532+1164.54+339.652+1164.42+339.772C1164.3+339.892+1164.18+339.952+1164.06+339.952L1150.45+339.952L1150.45+350.932C1150.45+351.268+1150.28+351.436+1149.95+351.436L1146.81+351.436C1146.48+351.436+1146.31+351.268+1146.31+350.932L1146.31+339.952L1132.7+339.952C1132.56+339.952+1132.44+339.892+1132.34+339.772C1132.25+339.652+1132.2+339.532+1132.2+339.412L1132.2+337.036C1132.2+336.892+1132.25+336.766+1132.34+336.658C1132.44+336.55+1132.56+336.496+1132.7+336.496L1164.06+336.496C1164.18+336.496+1164.3+336.556+1164.42+336.676C1164.54+336.796+1164.6+336.916+1164.6+337.036L1164.6+339.412Z" opacity="1" fill="#110541"/>
<path d="M1166.54+342.94C1166.54+342.58+1166.72+342.4+1167.08+342.4C1168.45+342.448+1169.88+342.46+1171.38+342.436C1172.88+342.412+1174.39+342.376+1175.9+342.328L1175.9+339.232C1175.06+339.064+1174.29+338.806+1173.58+338.458C1172.87+338.11+1172.26+337.678+1171.74+337.162C1171.23+336.646+1170.83+336.064+1170.54+335.416C1170.25+334.768+1170.11+334.06+1170.11+333.292C1170.11+332.404+1170.32+331.582+1170.74+330.826C1171.16+330.07+1171.73+329.428+1172.45+328.9C1173.17+328.372+1174.01+327.958+1174.97+327.658C1175.93+327.358+1176.95+327.208+1178.03+327.208C1179.13+327.208+1180.17+327.358+1181.14+327.658C1182.11+327.958+1182.96+328.372+1183.68+328.9C1184.4+329.428+1184.96+330.07+1185.37+330.826C1185.78+331.582+1185.98+332.404+1185.98+333.292C1185.98+334.06+1185.83+334.768+1185.51+335.416C1185.2+336.064+1184.78+336.64+1184.24+337.144C1183.7+337.648+1183.06+338.074+1182.33+338.422C1181.6+338.77+1180.8+339.016+1179.93+339.16L1179.93+342.148C1181.52+342.052+1183.06+341.944+1184.56+341.824C1186.06+341.704+1187.45+341.548+1188.72+341.356C1188.84+341.332+1188.98+341.338+1189.13+341.374C1189.29+341.41+1189.38+341.524+1189.4+341.716L1189.62+343.984C1189.64+344.176+1189.61+344.32+1189.51+344.416C1189.41+344.512+1189.31+344.572+1189.19+344.596C1187.84+344.812+1186.26+345.004+1184.43+345.172C1182.61+345.34+1180.7+345.478+1178.69+345.586C1176.69+345.694+1174.68+345.772+1172.66+345.82C1170.65+345.868+1168.79+345.88+1167.08+345.856C1166.91+345.856+1166.78+345.802+1166.69+345.694C1166.59+345.586+1166.54+345.46+1166.54+345.316L1166.54+342.94ZM1195.05+351.22C1195.05+351.532+1194.89+351.688+1194.55+351.688L1191.38+351.688C1191.26+351.688+1191.15+351.646+1191.04+351.562C1190.93+351.478+1190.88+351.364+1190.88+351.22L1190.88+317.992C1190.88+317.872+1190.93+317.764+1191.04+317.668C1191.15+317.572+1191.26+317.524+1191.38+317.524L1194.55+317.524C1194.89+317.524+1195.05+317.68+1195.05+317.992L1195.05+351.22ZM1187.85+325.408C1187.85+325.552+1187.8+325.678+1187.69+325.786C1187.58+325.894+1187.46+325.948+1187.31+325.948L1168.27+325.948C1168.15+325.948+1168.03+325.888+1167.91+325.768C1167.79+325.648+1167.73+325.516+1167.73+325.372L1167.73+323.356C1167.73+323.236+1167.8+323.116+1167.93+322.996C1168.06+322.876+1168.19+322.816+1168.31+322.816L1187.31+322.816C1187.46+322.816+1187.58+322.87+1187.69+322.978C1187.8+323.086+1187.85+323.212+1187.85+323.356L1187.85+325.408ZM1178.03+330.412C1176.87+330.412+1175.91+330.682+1175.15+331.222C1174.38+331.762+1173.99+332.452+1173.99+333.292C1173.99+334.132+1174.37+334.828+1175.13+335.38C1175.88+335.932+1176.85+336.208+1178.03+336.208C1179.23+336.208+1180.2+335.932+1180.96+335.38C1181.72+334.828+1182.09+334.132+1182.09+333.292C1182.09+332.452+1181.72+331.762+1180.96+331.222C1180.2+330.682+1179.23+330.412+1178.03+330.412ZM1183.21+320.728C1183.21+320.896+1183.16+321.04+1183.05+321.16C1182.94+321.28+1182.8+321.34+1182.63+321.34L1173.09+321.34C1173+321.34+1172.88+321.292+1172.73+321.196C1172.59+321.1+1172.52+320.956+1172.52+320.764L1172.52+318.676C1172.52+318.508+1172.59+318.376+1172.73+318.28C1172.88+318.184+1173+318.136+1173.09+318.136L1182.63+318.136C1182.78+318.136+1182.91+318.196+1183.03+318.316C1183.15+318.436+1183.21+318.568+1183.21+318.712L1183.21+320.728Z" opacity="1" fill="#110541"/>
<path d="M1227.74+344.848C1227.74+345.856+1227.47+346.786+1226.91+347.638C1226.36+348.49+1225.61+349.222+1224.65+349.834C1223.69+350.446+1222.54+350.92+1221.21+351.256C1219.88+351.592+1218.44+351.76+1216.91+351.76C1215.25+351.76+1213.76+351.592+1212.44+351.256C1211.12+350.92+1210+350.446+1209.08+349.834C1208.15+349.222+1207.44+348.496+1206.93+347.656C1206.43+346.816+1206.18+345.88+1206.18+344.848C1206.18+343.84+1206.43+342.916+1206.93+342.076C1207.44+341.236+1208.15+340.51+1209.08+339.898C1210+339.286+1211.12+338.812+1212.44+338.476C1213.76+338.14+1215.25+337.972+1216.91+337.972C1218.44+337.972+1219.88+338.14+1221.21+338.476C1222.54+338.812+1223.69+339.28+1224.65+339.88C1225.61+340.48+1226.36+341.2+1226.91+342.04C1227.47+342.88+1227.74+343.816+1227.74+344.848ZM1203.26+336.892C1203.09+336.964+1202.9+337+1202.67+337C1202.44+337+1202.25+336.868+1202.11+336.604L1200.99+334.804C1200.87+334.612+1200.84+334.408+1200.9+334.192C1200.96+333.976+1201.11+333.808+1201.35+333.688C1204.02+332.464+1206.34+330.97+1208.32+329.206C1210.3+327.442+1211.77+325.564+1212.73+323.572C1212.85+323.356+1212.9+323.164+1212.87+322.996C1212.85+322.828+1212.65+322.744+1212.26+322.744L1203.23+322.744C1203.06+322.744+1202.93+322.684+1202.85+322.564C1202.76+322.444+1202.72+322.312+1202.72+322.168L1202.72+319.792C1202.72+319.456+1202.9+319.288+1203.26+319.288L1214.82+319.288C1215.87+319.288+1216.66+319.48+1217.18+319.864C1217.69+320.248+1217.89+320.836+1217.77+321.628C1217.72+321.892+1217.66+322.168+1217.59+322.456C1217.52+322.744+1217.43+322.996+1217.34+323.212C1217.05+323.98+1216.67+324.754+1216.2+325.534C1215.74+326.314+1215.21+327.088+1214.64+327.856C1215.07+328.288+1215.55+328.72+1216.08+329.152C1216.61+329.584+1217.15+329.992+1217.7+330.376C1218.25+330.76+1218.8+331.114+1219.34+331.438C1219.88+331.762+1220.39+332.044+1220.87+332.284C1221.13+332.404+1221.3+332.53+1221.37+332.662C1221.44+332.794+1221.39+332.98+1221.23+333.22L1220.04+335.236C1219.77+335.668+1219.41+335.752+1218.96+335.488C1218.53+335.296+1218.03+335.026+1217.46+334.678C1216.9+334.33+1216.32+333.934+1215.72+333.49C1215.12+333.046+1214.52+332.578+1213.92+332.086C1213.32+331.594+1212.77+331.096+1212.26+330.592C1210.99+331.84+1209.59+333.004+1208.05+334.084C1206.51+335.164+1204.92+336.1+1203.26+336.892ZM1232.78+329.188C1232.78+329.308+1232.73+329.416+1232.62+329.512C1232.51+329.608+1232.39+329.656+1232.24+329.656L1227.38+329.656L1227.38+337C1227.38+337.12+1227.33+337.234+1227.24+337.342C1227.14+337.45+1227.03+337.504+1226.91+337.504L1223.71+337.504C1223.59+337.504+1223.48+337.45+1223.39+337.342C1223.29+337.234+1223.24+337.108+1223.24+336.964L1223.24+317.992C1223.24+317.68+1223.4+317.524+1223.71+317.524L1226.91+317.524C1227.23+317.524+1227.38+317.68+1227.38+317.992L1227.38+326.2L1232.24+326.2C1232.39+326.2+1232.51+326.248+1232.62+326.344C1232.73+326.44+1232.78+326.548+1232.78+326.668L1232.78+329.188ZM1223.49+344.956C1223.49+344.356+1223.31+343.828+1222.95+343.372C1222.59+342.916+1222.11+342.532+1221.51+342.22C1220.91+341.908+1220.22+341.668+1219.43+341.5C1218.63+341.332+1217.79+341.248+1216.91+341.248C1214.99+341.248+1213.43+341.566+1212.24+342.202C1211.06+342.838+1210.46+343.756+1210.46+344.956C1210.46+345.532+1210.62+346.036+1210.95+346.468C1211.27+346.9+1211.72+347.266+1212.28+347.566C1212.84+347.866+1213.52+348.094+1214.31+348.25C1215.11+348.406+1215.97+348.484+1216.91+348.484C1217.79+348.484+1218.63+348.406+1219.43+348.25C1220.22+348.094+1220.91+347.866+1221.51+347.566C1222.11+347.266+1222.59+346.9+1222.95+346.468C1223.31+346.036+1223.49+345.532+1223.49+344.956Z" opacity="1" fill="#110541"/>
</g>
<g opacity="1">
<path d="M1146.78+719.989C1146.78+719.677+1146.95+719.521+1147.29+719.521L1150.38+719.521C1150.7+719.521+1150.85+719.677+1150.85+719.989L1150.85+740.257C1150.85+740.569+1150.7+740.725+1150.38+740.725L1147.25+740.725C1146.94+740.725+1146.78+740.569+1146.78+740.257L1146.78+732.517L1143.69+732.517L1143.69+739.141C1143.69+739.477+1143.53+739.645+1143.22+739.645L1140.23+739.645C1139.9+739.645+1139.73+739.477+1139.73+739.141L1139.73+720.565C1139.73+720.253+1139.9+720.097+1140.23+720.097L1143.22+720.097C1143.53+720.097+1143.69+720.253+1143.69+720.565L1143.69+729.061L1146.78+729.061L1146.78+719.989ZM1146.89+747.529C1146.89+747.097+1146.71+746.695+1146.33+746.323C1145.96+745.951+1145.45+745.627+1144.79+745.351C1144.13+745.075+1143.35+744.859+1142.45+744.703C1141.55+744.547+1140.56+744.469+1139.48+744.469C1138.4+744.469+1137.41+744.547+1136.51+744.703C1135.61+744.859+1134.83+745.075+1134.18+745.351C1133.54+745.627+1133.03+745.951+1132.65+746.323C1132.28+746.695+1132.1+747.097+1132.1+747.529C1132.1+747.913+1132.28+748.279+1132.65+748.627C1133.03+748.975+1133.54+749.281+1134.18+749.545C1134.83+749.809+1135.61+750.019+1136.51+750.175C1137.41+750.331+1138.4+750.409+1139.48+750.409C1140.56+750.409+1141.55+750.331+1142.45+750.175C1143.35+750.019+1144.13+749.809+1144.79+749.545C1145.45+749.281+1145.96+748.975+1146.33+748.627C1146.71+748.279+1146.89+747.913+1146.89+747.529ZM1151.14+747.421C1151.14+748.357+1150.84+749.209+1150.24+749.977C1149.64+750.745+1148.81+751.399+1147.76+751.939C1146.7+752.479+1145.46+752.893+1144.05+753.181C1142.63+753.469+1141.11+753.613+1139.48+753.613C1137.84+753.613+1136.32+753.469+1134.9+753.181C1133.49+752.893+1132.25+752.479+1131.2+751.939C1130.14+751.399+1129.31+750.745+1128.71+749.977C1128.11+749.209+1127.81+748.357+1127.81+747.421C1127.81+746.485+1128.11+745.639+1128.71+744.883C1129.31+744.127+1130.14+743.479+1131.2+742.939C1132.25+742.399+1133.49+741.985+1134.9+741.697C1136.32+741.409+1137.84+741.265+1139.48+741.265C1141.11+741.265+1142.63+741.409+1144.05+741.697C1145.46+741.985+1146.7+742.399+1147.76+742.939C1148.81+743.479+1149.64+744.127+1150.24+744.883C1150.84+745.639+1151.14+746.485+1151.14+747.421ZM1137.96+727.405C1137.96+727.549+1137.91+727.675+1137.8+727.783C1137.69+727.891+1137.57+727.945+1137.42+727.945L1121.98+727.945C1121.86+727.945+1121.74+727.885+1121.62+727.765C1121.5+727.645+1121.44+727.513+1121.44+727.369L1121.44+725.389C1121.44+725.269+1121.51+725.149+1121.64+725.029C1121.77+724.909+1121.9+724.849+1122.02+724.849L1137.42+724.849C1137.57+724.849+1137.69+724.903+1137.8+725.011C1137.91+725.119+1137.96+725.245+1137.96+725.389L1137.96+727.405ZM1134.36+722.761C1134.36+722.929+1134.31+723.073+1134.2+723.193C1134.09+723.313+1133.96+723.373+1133.79+723.373L1126.01+723.373C1125.92+723.373+1125.8+723.325+1125.67+723.229C1125.54+723.133+1125.47+723.001+1125.47+722.833L1125.47+720.781C1125.47+720.613+1125.54+720.481+1125.67+720.385C1125.8+720.289+1125.92+720.241+1126.01+720.241L1133.79+720.241C1133.93+720.241+1134.06+720.301+1134.18+720.421C1134.3+720.541+1134.36+720.673+1134.36+720.817L1134.36+722.761ZM1129.9+732.193C1128.87+732.193+1128.08+732.457+1127.52+732.985C1126.97+733.513+1126.7+734.125+1126.7+734.821C1126.7+735.517+1126.97+736.141+1127.52+736.693C1128.08+737.245+1128.87+737.521+1129.9+737.521C1130.91+737.521+1131.69+737.245+1132.24+736.693C1132.79+736.141+1133.07+735.517+1133.07+734.821C1133.07+734.125+1132.79+733.513+1132.24+732.985C1131.69+732.457+1130.91+732.193+1129.9+732.193ZM1129.9+729.097C1130.96+729.097+1131.91+729.247+1132.76+729.547C1133.61+729.847+1134.35+730.261+1134.96+730.789C1135.57+731.317+1136.04+731.923+1136.36+732.607C1136.69+733.291+1136.85+734.005+1136.85+734.749C1136.85+735.517+1136.69+736.249+1136.36+736.945C1136.04+737.641+1135.57+738.259+1134.96+738.799C1134.35+739.339+1133.61+739.765+1132.74+740.077C1131.88+740.389+1130.91+740.545+1129.83+740.545C1128.77+740.545+1127.82+740.389+1126.98+740.077C1126.14+739.765+1125.42+739.351+1124.81+738.835C1124.19+738.319+1123.73+737.713+1123.4+737.017C1123.08+736.321+1122.92+735.589+1122.92+734.821C1122.92+734.077+1123.08+733.357+1123.4+732.661C1123.73+731.965+1124.19+731.353+1124.81+730.825C1125.42+730.297+1126.16+729.877+1127.02+729.565C1127.88+729.253+1128.84+729.097+1129.9+729.097Z" opacity="1" fill="#110541"/>
<path d="M1183.43+746.881C1183.43+747.889+1183.16+748.813+1182.62+749.653C1182.08+750.493+1181.33+751.213+1180.35+751.813C1179.38+752.413+1178.24+752.875+1176.92+753.199C1175.6+753.523+1174.17+753.685+1172.63+753.685C1170.98+753.685+1169.49+753.523+1168.17+753.199C1166.85+752.875+1165.73+752.419+1164.8+751.831C1163.88+751.243+1163.17+750.529+1162.68+749.689C1162.19+748.849+1161.94+747.913+1161.94+746.881C1161.94+745.873+1162.19+744.955+1162.68+744.127C1163.17+743.299+1163.88+742.585+1164.8+741.985C1165.73+741.385+1166.85+740.923+1168.17+740.599C1169.49+740.275+1170.98+740.113+1172.63+740.113C1174.17+740.113+1175.6+740.275+1176.92+740.599C1178.24+740.923+1179.38+741.379+1180.35+741.967C1181.33+742.555+1182.08+743.263+1182.62+744.091C1183.16+744.919+1183.43+745.849+1183.43+746.881ZM1157.87+739.393C1157.73+739.465+1157.54+739.495+1157.3+739.483C1157.06+739.471+1156.86+739.333+1156.72+739.069L1155.64+737.305C1155.52+737.113+1155.49+736.909+1155.55+736.693C1155.61+736.477+1155.76+736.321+1156+736.225C1157.34+735.625+1158.62+734.923+1159.82+734.119C1161.02+733.315+1162.1+732.457+1163.07+731.545C1164.05+730.633+1164.89+729.685+1165.61+728.701C1166.33+727.717+1166.88+726.733+1167.27+725.749C1167.36+725.533+1167.41+725.341+1167.39+725.173C1167.38+725.005+1167.18+724.921+1166.8+724.921L1157.87+724.921C1157.73+724.921+1157.61+724.861+1157.51+724.741C1157.42+724.621+1157.37+724.489+1157.37+724.345L1157.37+721.969C1157.37+721.825+1157.42+721.705+1157.53+721.609C1157.64+721.513+1157.76+721.465+1157.91+721.465L1169.28+721.465C1170.34+721.465+1171.13+721.657+1171.64+722.041C1172.16+722.425+1172.36+723.013+1172.24+723.805C1172.19+724.069+1172.12+724.345+1172.04+724.633C1171.95+724.921+1171.88+725.173+1171.8+725.389C1171.49+726.253+1171.11+727.099+1170.67+727.927C1170.23+728.755+1169.73+729.565+1169.18+730.357C1169.61+730.789+1170.09+731.221+1170.62+731.653C1171.14+732.085+1171.68+732.499+1172.24+732.895C1172.79+733.291+1173.34+733.651+1173.89+733.975C1174.44+734.299+1174.96+734.569+1175.44+734.785C1175.92+735.025+1176.03+735.361+1175.76+735.793L1174.65+737.737C1174.38+738.145+1174.01+738.229+1173.53+737.989C1173.08+737.773+1172.57+737.485+1172.02+737.125C1171.47+736.765+1170.9+736.369+1170.31+735.937C1169.72+735.505+1169.13+735.043+1168.55+734.551C1167.96+734.059+1167.41+733.549+1166.91+733.021C1165.66+734.269+1164.28+735.433+1162.77+736.513C1161.26+737.593+1159.62+738.553+1157.87+739.393ZM1172.88+730.573L1172.88+728.053C1172.88+727.933+1172.94+727.831+1173.05+727.747C1173.15+727.663+1173.27+727.621+1173.39+727.621L1179.04+727.621L1179.04+719.989C1179.04+719.677+1179.2+719.521+1179.51+719.521L1182.71+719.521C1183.02+719.521+1183.18+719.677+1183.18+719.989L1183.18+739.105C1183.18+739.441+1183.02+739.609+1182.71+739.609L1179.51+739.609C1179.2+739.609+1179.04+739.441+1179.04+739.105L1179.04+731.005L1173.39+731.005C1173.27+731.005+1173.15+730.963+1173.05+730.879C1172.94+730.795+1172.88+730.693+1172.88+730.573ZM1179.15+746.989C1179.15+746.389+1178.97+745.867+1178.63+745.423C1178.28+744.979+1177.8+744.607+1177.2+744.307C1176.6+744.007+1175.91+743.779+1175.13+743.623C1174.35+743.467+1173.52+743.389+1172.63+743.389C1170.71+743.389+1169.16+743.689+1167.97+744.289C1166.78+744.889+1166.19+745.789+1166.19+746.989C1166.19+747.565+1166.35+748.063+1166.67+748.483C1167+748.903+1167.44+749.257+1168.01+749.545C1168.57+749.833+1169.25+750.049+1170.04+750.193C1170.83+750.337+1171.7+750.409+1172.63+750.409C1173.52+750.409+1174.35+750.337+1175.13+750.193C1175.91+750.049+1176.6+749.833+1177.2+749.545C1177.8+749.257+1178.28+748.903+1178.63+748.483C1178.97+748.063+1179.15+747.565+1179.15+746.989Z" opacity="1" fill="#110541"/>
<path d="M1215.54+722.761C1215.54+723.313+1215.53+723.955+1215.49+724.687C1215.45+725.419+1215.39+726.199+1215.31+727.027C1215.23+727.855+1215.12+728.701+1215+729.565C1214.88+730.429+1214.74+731.269+1214.57+732.085L1219.86+732.085C1219.98+732.085+1220.1+732.151+1220.22+732.283C1220.34+732.415+1220.4+732.541+1220.4+732.661L1220.4+735.001C1220.4+735.121+1220.34+735.241+1220.22+735.361C1220.1+735.481+1219.98+735.541+1219.86+735.541L1205.97+735.541L1205.97+740.905L1212.99+740.905C1213.97+740.905+1214.61+741.073+1214.91+741.409C1215.21+741.745+1215.36+742.441+1215.36+743.497L1215.36+753.181C1215.36+753.301+1215.31+753.415+1215.2+753.523C1215.09+753.631+1214.98+753.685+1214.86+753.685L1211.73+753.685C1211.58+753.685+1211.46+753.631+1211.35+753.523C1211.24+753.415+1211.19+753.301+1211.19+753.181L1211.19+744.901C1211.19+744.661+1211.14+744.505+1211.04+744.433C1210.95+744.361+1210.77+744.325+1210.5+744.325L1192.79+744.325C1192.67+744.325+1192.55+744.283+1192.43+744.199C1192.31+744.115+1192.25+744.013+1192.25+743.893L1192.25+741.337C1192.25+741.193+1192.31+741.085+1192.43+741.013C1192.55+740.941+1192.67+740.905+1192.79+740.905L1201.83+740.905L1201.83+735.541L1188.51+735.541C1188.36+735.541+1188.24+735.481+1188.15+735.361C1188.05+735.241+1188+735.121+1188+735.001L1188+732.661C1188+732.277+1188.17+732.085+1188.51+732.085L1210.76+732.085C1210.97+730.909+1211.15+729.691+1211.3+728.431C1211.44+727.171+1211.51+725.821+1211.51+724.381C1211.51+724.045+1211.43+723.835+1211.26+723.751C1211.09+723.667+1210.84+723.625+1210.5+723.625L1193.73+723.625C1193.61+723.625+1193.49+723.577+1193.37+723.481C1193.25+723.385+1193.19+723.277+1193.19+723.157L1193.19+720.673C1193.19+720.529+1193.25+720.421+1193.37+720.349C1193.49+720.277+1193.61+720.241+1193.73+720.241L1213.17+720.241C1213.94+720.241+1214.52+720.439+1214.93+720.835C1215.34+721.231+1215.54+721.873+1215.54+722.761Z" opacity="1" fill="#110541"/>
</g>
<g opacity="1">
<path d="M781.627+745.012C781.435+745.132+781.231+745.18+781.015+745.156C780.799+745.132+780.631+745.024+780.511+744.832L779.107+742.96C778.939+742.744+778.909+742.54+779.017+742.348C779.125+742.156+779.263+742.012+779.431+741.916C780.943+740.98+782.383+739.9+783.751+738.676C785.119+737.452+786.349+736.168+787.441+734.824C788.533+733.48+789.463+732.106+790.231+730.702C790.999+729.298+791.551+727.948+791.887+726.652C791.983+726.244+791.995+725.98+791.923+725.86C791.851+725.74+791.611+725.68+791.203+725.68L781.915+725.68C781.771+725.68+781.657+725.626+781.573+725.518C781.489+725.41+781.447+725.284+781.447+725.14L781.447+722.728C781.447+722.392+781.615+722.224+781.951+722.224L793.687+722.224C794.623+722.224+795.355+722.404+795.883+722.764C796.411+723.124+796.675+723.592+796.675+724.168C796.675+724.48+796.651+724.798+796.603+725.122C796.555+725.446+796.495+725.74+796.423+726.004C796.087+727.276+795.637+728.554+795.073+729.838C794.509+731.122+793.819+732.412+793.003+733.708C793.459+734.332+793.987+734.986+794.587+735.67C795.187+736.354+795.811+737.02+796.459+737.668C797.107+738.316+797.743+738.922+798.367+739.486C798.991+740.05+799.555+740.512+800.059+740.872C800.227+740.992+800.341+741.148+800.401+741.34C800.461+741.532+800.419+741.724+800.275+741.916L798.727+743.68C798.415+744.016+798.019+744.04+797.539+743.752C797.107+743.464+796.597+743.062+796.009+742.546C795.421+742.03+794.815+741.46+794.191+740.836C793.567+740.212+792.955+739.552+792.355+738.856C791.755+738.16+791.215+737.5+790.735+736.876C789.511+738.388+788.143+739.834+786.631+741.214C785.119+742.594+783.451+743.86+781.627+745.012ZM807.295+753.22C807.295+753.532+807.127+753.688+806.791+753.688L803.623+753.688C803.503+753.688+803.389+753.646+803.281+753.562C803.173+753.478+803.119+753.364+803.119+753.22L803.119+719.992C803.119+719.872+803.173+719.764+803.281+719.668C803.389+719.572+803.503+719.524+803.623+719.524L806.791+719.524C807.127+719.524+807.295+719.68+807.295+719.992L807.295+753.22Z" opacity="1" fill="#110541"/>
<path d="M823.711+723.196C823.135+723.196+822.583+723.286+822.055+723.466C821.527+723.646+821.071+723.886+820.687+724.186C820.303+724.486+819.997+724.846+819.769+725.266C819.541+725.686+819.427+726.136+819.427+726.616C819.427+727.12+819.541+727.582+819.769+728.002C819.997+728.422+820.303+728.782+820.687+729.082C821.071+729.382+821.527+729.622+822.055+729.802C822.583+729.982+823.135+730.072+823.711+730.072C824.311+730.072+824.869+729.982+825.385+729.802C825.901+729.622+826.357+729.382+826.753+729.082C827.149+728.782+827.461+728.422+827.689+728.002C827.917+727.582+828.031+727.12+828.031+726.616C828.031+726.136+827.917+725.686+827.689+725.266C827.461+724.846+827.149+724.486+826.753+724.186C826.357+723.886+825.901+723.646+825.385+723.466C824.869+723.286+824.311+723.196+823.711+723.196ZM823.711+720.028C824.935+720.028+826.057+720.202+827.077+720.55C828.097+720.898+828.973+721.366+829.705+721.954C830.437+722.542+831.007+723.232+831.415+724.024C831.823+724.816+832.027+725.656+832.027+726.544C832.027+727.48+831.823+728.356+831.415+729.172C831.007+729.988+830.437+730.69+829.705+731.278C828.973+731.866+828.097+732.334+827.077+732.682C826.057+733.03+824.935+733.204+823.711+733.204C822.487+733.204+821.371+733.03+820.363+732.682C819.355+732.334+818.485+731.866+817.753+731.278C817.021+730.69+816.457+729.988+816.061+729.172C815.665+728.356+815.467+727.48+815.467+726.544C815.467+725.656+815.665+724.816+816.061+724.024C816.457+723.232+817.021+722.542+817.753+721.954C818.485+721.366+819.355+720.898+820.363+720.55C821.371+720.202+822.487+720.028+823.711+720.028ZM841.099+745.912C841.099+746.248+840.943+746.416+840.631+746.416L837.427+746.416C837.115+746.416+836.959+746.248+836.959+745.912L836.959+742.636L830.803+742.636C830.683+742.636+830.569+742.588+830.461+742.492C830.353+742.396+830.299+742.288+830.299+742.168L830.299+739.9C830.299+739.78+830.353+739.678+830.461+739.594C830.569+739.51+830.683+739.468+830.803+739.468L836.959+739.468L836.959+719.992C836.959+719.68+837.115+719.524+837.427+719.524L840.631+719.524C840.943+719.524+841.099+719.68+841.099+719.992L841.099+745.912ZM835.735+736.552C835.759+736.744+835.717+736.894+835.609+737.002C835.501+737.11+835.387+737.188+835.267+737.236C834.595+737.356+833.851+737.458+833.035+737.542C832.219+737.626+831.379+737.704+830.515+737.776C829.651+737.848+828.793+737.914+827.941+737.974C827.089+738.034+826.291+738.076+825.547+738.1L825.547+743.284C825.547+743.428+825.493+743.554+825.385+743.662C825.277+743.77+825.151+743.824+825.007+743.824L822.019+743.824C821.875+743.824+821.749+743.77+821.641+743.662C821.533+743.554+821.479+743.428+821.479+743.284L821.479+738.388C820.759+738.412+820.021+738.43+819.265+738.442C818.509+738.454+817.771+738.472+817.051+738.496C816.331+738.52+815.647+738.532+814.999+738.532C814.351+738.532+813.787+738.52+813.307+738.496C813.163+738.496+813.043+738.436+812.947+738.316C812.851+738.196+812.803+738.064+812.803+737.92L812.803+735.688C812.803+735.544+812.851+735.418+812.947+735.31C813.043+735.202+813.163+735.148+813.307+735.148C814.963+735.148+816.769+735.13+818.725+735.094C820.681+735.058+822.631+734.998+824.575+734.914C826.519+734.83+828.391+734.722+830.191+734.59C831.991+734.458+833.551+734.296+834.871+734.104C834.991+734.08+835.117+734.104+835.249+734.176C835.381+734.248+835.459+734.356+835.483+734.5L835.735+736.552ZM841.891+752.644C841.891+752.788+841.837+752.896+841.729+752.968C841.621+753.04+841.507+753.076+841.387+753.076L820.975+753.076C819.871+753.076+819.133+752.884+818.761+752.5C818.389+752.116+818.203+751.456+818.203+750.52L818.203+745.372C818.203+745.252+818.257+745.138+818.365+745.03C818.473+744.922+818.587+744.868+818.707+744.868L821.803+744.868C821.947+744.868+822.073+744.922+822.181+745.03C822.289+745.138+822.343+745.252+822.343+745.372L822.343+749.044C822.343+749.284+822.391+749.44+822.487+749.512C822.583+749.584+822.763+749.62+823.027+749.62L841.387+749.62C841.507+749.62+841.621+749.668+841.729+749.764C841.837+749.86+841.891+749.968+841.891+750.088L841.891+752.644Z" opacity="1" fill="#110541"/>
<path d="M873.499+722.764C873.499+723.316+873.481+723.958+873.445+724.69C873.409+725.422+873.349+726.202+873.265+727.03C873.181+727.858+873.079+728.704+872.959+729.568C872.839+730.432+872.695+731.272+872.527+732.088L877.819+732.088C877.939+732.088+878.059+732.154+878.179+732.286C878.299+732.418+878.359+732.544+878.359+732.664L878.359+735.004C878.359+735.124+878.299+735.244+878.179+735.364C878.059+735.484+877.939+735.544+877.819+735.544L863.923+735.544L863.923+740.908L870.943+740.908C871.927+740.908+872.569+741.076+872.869+741.412C873.169+741.748+873.319+742.444+873.319+743.5L873.319+753.184C873.319+753.304+873.265+753.418+873.157+753.526C873.049+753.634+872.935+753.688+872.815+753.688L869.683+753.688C869.539+753.688+869.413+753.634+869.305+753.526C869.197+753.418+869.143+753.304+869.143+753.184L869.143+744.904C869.143+744.664+869.095+744.508+868.999+744.436C868.903+744.364+868.723+744.328+868.459+744.328L850.747+744.328C850.627+744.328+850.507+744.286+850.387+744.202C850.267+744.118+850.207+744.016+850.207+743.896L850.207+741.34C850.207+741.196+850.267+741.088+850.387+741.016C850.507+740.944+850.627+740.908+850.747+740.908L859.783+740.908L859.783+735.544L846.463+735.544C846.319+735.544+846.199+735.484+846.103+735.364C846.007+735.244+845.959+735.124+845.959+735.004L845.959+732.664C845.959+732.28+846.127+732.088+846.463+732.088L868.711+732.088C868.927+730.912+869.107+729.694+869.251+728.434C869.395+727.174+869.467+725.824+869.467+724.384C869.467+724.048+869.383+723.838+869.215+723.754C869.047+723.67+868.795+723.628+868.459+723.628L851.683+723.628C851.563+723.628+851.443+723.58+851.323+723.484C851.203+723.388+851.143+723.28+851.143+723.16L851.143+720.676C851.143+720.532+851.203+720.424+851.323+720.352C851.443+720.28+851.563+720.244+851.683+720.244L871.123+720.244C871.891+720.244+872.479+720.442+872.887+720.838C873.295+721.234+873.499+721.876+873.499+722.764Z" opacity="1" fill="#110541"/>
</g>
<g opacity="1">
<path d="M464.11+748.072C464.11+748.912+463.852+749.692+463.336+750.412C462.82+751.132+462.076+751.75+461.104+752.266C460.132+752.782+458.932+753.19+457.504+753.49C456.076+753.79+454.462+753.94+452.662+753.94C450.862+753.94+449.248+753.79+447.82+753.49C446.392+753.19+445.192+752.782+444.22+752.266C443.248+751.75+442.504+751.132+441.988+750.412C441.472+749.692+441.214+748.912+441.214+748.072C441.214+747.256+441.472+746.494+441.988+745.786C442.504+745.078+443.248+744.466+444.22+743.95C445.192+743.434+446.392+743.026+447.82+742.726C449.248+742.426+450.862+742.276+452.662+742.276C454.462+742.276+456.076+742.426+457.504+742.726C458.932+743.026+460.132+743.434+461.104+743.95C462.076+744.466+462.82+745.078+463.336+745.786C463.852+746.494+464.11+747.256+464.11+748.072ZM441.322+735.112C441.154+735.16+440.974+735.154+440.782+735.094C440.59+735.034+440.47+734.932+440.422+734.788L439.738+732.736C439.69+732.592+439.714+732.442+439.81+732.286C439.906+732.13+440.038+732.028+440.206+731.98C443.086+731.452+445.78+730.846+448.288+730.162C450.796+729.478+453.058+728.668+455.074+727.732C455.29+727.636+455.428+727.558+455.488+727.498C455.548+727.438+455.56+727.39+455.524+727.354C455.488+727.318+455.422+727.294+455.326+727.282C455.23+727.27+455.146+727.264+455.074+727.264L442.654+727.264C442.318+727.264+442.15+727.108+442.15+726.796L442.15+724.6C442.15+724.312+442.318+724.168+442.654+724.168L458.998+724.168C460.054+724.168+460.834+724.342+461.338+724.69C461.842+725.038+462.094+725.428+462.094+725.86C462.094+726.268+461.968+726.664+461.716+727.048C461.464+727.432+461.158+727.78+460.798+728.092C460.414+728.476+459.94+728.848+459.376+729.208C458.812+729.568+458.182+729.916+457.486+730.252C458.638+730.54+459.904+730.81+461.284+731.062C462.664+731.314+463.978+731.524+465.226+731.692C465.418+731.74+465.55+731.836+465.622+731.98C465.694+732.124+465.706+732.28+465.658+732.448L465.082+734.32C465.034+734.44+464.932+734.554+464.776+734.662C464.62+734.77+464.434+734.8+464.218+734.752C462.49+734.488+460.624+734.128+458.62+733.672C456.616+733.216+454.678+732.712+452.806+732.16C451.078+732.784+449.23+733.348+447.262+733.852C445.294+734.356+443.314+734.776+441.322+735.112ZM468.862+740.008C468.862+740.128+468.802+740.248+468.682+740.368C468.562+740.488+468.442+740.548+468.322+740.548L437.002+740.548C436.858+740.548+436.738+740.488+436.642+740.368C436.546+740.248+436.498+740.128+436.498+740.008L436.498+737.812C436.498+737.428+436.666+737.236+437.002+737.236L450.538+737.236L450.538+734.644C450.538+734.308+450.706+734.14+451.042+734.14L454.174+734.14C454.51+734.14+454.678+734.308+454.678+734.644L454.678+737.236L468.178+737.236C468.298+737.236+468.442+737.296+468.61+737.416C468.778+737.536+468.862+737.668+468.862+737.812L468.862+740.008ZM452.662+745.336C450.262+745.336+448.438+745.618+447.19+746.182C445.942+746.746+445.318+747.388+445.318+748.108C445.318+748.828+445.942+749.476+447.19+750.052C448.438+750.628+450.262+750.916+452.662+750.916C455.062+750.916+456.886+750.628+458.134+750.052C459.382+749.476+460.006+748.828+460.006+748.108C460.006+747.388+459.382+746.746+458.134+746.182C456.886+745.618+455.062+745.336+452.662+745.336ZM457.522+722.152C457.522+722.296+457.462+722.428+457.342+722.548C457.222+722.668+457.078+722.728+456.91+722.728L447.694+722.728C447.598+722.728+447.484+722.68+447.352+722.584C447.22+722.488+447.154+722.356+447.154+722.188L447.154+720.208C447.154+720.04+447.22+719.908+447.352+719.812C447.484+719.716+447.598+719.668+447.694+719.668L456.91+719.668C457.054+719.668+457.192+719.728+457.324+719.848C457.456+719.968+457.522+720.1+457.522+720.244L457.522+722.152Z" opacity="1" fill="#110541"/>
<path d="M502.738+740.944C502.738+741.064+502.678+741.19+502.558+741.322C502.438+741.454+502.318+741.52+502.198+741.52L488.662+741.52L488.662+752.932C488.662+753.268+488.494+753.436+488.158+753.436L485.026+753.436C484.69+753.436+484.522+753.268+484.522+752.932L484.522+741.52L470.842+741.52C470.698+741.52+470.578+741.454+470.482+741.322C470.386+741.19+470.338+741.064+470.338+740.944L470.338+738.604C470.338+738.46+470.386+738.334+470.482+738.226C470.578+738.118+470.698+738.064+470.842+738.064L502.198+738.064C502.318+738.064+502.438+738.124+502.558+738.244C502.678+738.364+502.738+738.484+502.738+738.604L502.738+740.944ZM497.914+731.656C497.914+732.568+497.716+733.216+497.32+733.6C496.924+733.984+496.27+734.176+495.358+734.176L477.862+734.176C476.782+734.176+476.056+733.984+475.684+733.6C475.312+733.216+475.126+732.556+475.126+731.62L475.126+722.656C475.126+721.744+475.324+721.102+475.72+720.73C476.116+720.358+476.77+720.172+477.682+720.172L495.178+720.172C496.258+720.172+496.984+720.352+497.356+720.712C497.728+721.072+497.914+721.732+497.914+722.692L497.914+731.656ZM493.774+724.096C493.774+723.904+493.744+723.778+493.684+723.718C493.624+723.658+493.498+723.628+493.306+723.628L479.77+723.628C479.578+723.628+479.452+723.652+479.392+723.7C479.332+723.748+479.302+723.868+479.302+724.06L479.302+730.216C479.302+730.456+479.332+730.6+479.392+730.648C479.452+730.696+479.578+730.72+479.77+730.72L493.306+730.72C493.498+730.72+493.624+730.696+493.684+730.648C493.744+730.6+493.774+730.456+493.774+730.216L493.774+724.096Z" opacity="1" fill="#110541"/>
<path d="M531.718+722.764C531.718+723.316+531.7+723.958+531.664+724.69C531.628+725.422+531.568+726.202+531.484+727.03C531.4+727.858+531.298+728.704+531.178+729.568C531.058+730.432+530.914+731.272+530.746+732.088L536.038+732.088C536.158+732.088+536.278+732.154+536.398+732.286C536.518+732.418+536.578+732.544+536.578+732.664L536.578+735.004C536.578+735.124+536.518+735.244+536.398+735.364C536.278+735.484+536.158+735.544+536.038+735.544L522.142+735.544L522.142+740.908L529.162+740.908C530.146+740.908+530.788+741.076+531.088+741.412C531.388+741.748+531.538+742.444+531.538+743.5L531.538+753.184C531.538+753.304+531.484+753.418+531.376+753.526C531.268+753.634+531.154+753.688+531.034+753.688L527.902+753.688C527.758+753.688+527.632+753.634+527.524+753.526C527.416+753.418+527.362+753.304+527.362+753.184L527.362+744.904C527.362+744.664+527.314+744.508+527.218+744.436C527.122+744.364+526.942+744.328+526.678+744.328L508.966+744.328C508.846+744.328+508.726+744.286+508.606+744.202C508.486+744.118+508.426+744.016+508.426+743.896L508.426+741.34C508.426+741.196+508.486+741.088+508.606+741.016C508.726+740.944+508.846+740.908+508.966+740.908L518.002+740.908L518.002+735.544L504.682+735.544C504.538+735.544+504.418+735.484+504.322+735.364C504.226+735.244+504.178+735.124+504.178+735.004L504.178+732.664C504.178+732.28+504.346+732.088+504.682+732.088L526.93+732.088C527.146+730.912+527.326+729.694+527.47+728.434C527.614+727.174+527.686+725.824+527.686+724.384C527.686+724.048+527.602+723.838+527.434+723.754C527.266+723.67+527.014+723.628+526.678+723.628L509.902+723.628C509.782+723.628+509.662+723.58+509.542+723.484C509.422+723.388+509.362+723.28+509.362+723.16L509.362+720.676C509.362+720.532+509.422+720.424+509.542+720.352C509.662+720.28+509.782+720.244+509.902+720.244L529.342+720.244C530.11+720.244+530.698+720.442+531.106+720.838C531.514+721.234+531.718+721.876+531.718+722.764Z" opacity="1" fill="#110541"/>
</g>
<g opacity="1">
<path d="M1467.56+737.992C1467.46+738.04+1467.34+738.046+1467.18+738.01C1467.02+737.974+1466.89+737.86+1466.77+737.668L1465.47+735.436C1465.37+735.244+1465.37+735.07+1465.45+734.914C1465.54+734.758+1465.66+734.656+1465.83+734.608C1467.63+733.936+1469.21+733.21+1470.56+732.43C1471.92+731.65+1473.07+730.756+1474+729.748C1474.94+728.74+1475.68+727.588+1476.23+726.292C1476.79+724.996+1477.15+723.496+1477.31+721.792C1477.34+721.624+1477.39+721.456+1477.48+721.288C1477.56+721.12+1477.7+721.048+1477.89+721.072L1481.02+721.216C1481.43+721.24+1481.62+721.504+1481.6+722.008C1481.57+722.632+1481.5+723.22+1481.38+723.772C1481.67+724.924+1482.17+726.028+1482.89+727.084C1483.61+728.14+1484.5+729.106+1485.54+729.982C1486.58+730.858+1487.74+731.632+1489.01+732.304C1490.29+732.976+1491.61+733.504+1492.97+733.888C1493.12+733.936+1493.21+734.038+1493.26+734.194C1493.31+734.35+1493.3+734.488+1493.23+734.608L1492.04+736.912C1491.85+737.272+1491.56+737.404+1491.17+737.308C1490.07+737.02+1488.96+736.612+1487.84+736.084C1486.73+735.556+1485.65+734.938+1484.62+734.23C1483.59+733.522+1482.64+732.73+1481.78+731.854C1480.91+730.978+1480.18+730.036+1479.58+729.028C1478.38+731.14+1476.75+732.94+1474.69+734.428C1472.62+735.916+1470.25+737.104+1467.56+737.992ZM1495.75+747.316C1495.75+747.436+1495.69+747.556+1495.57+747.676C1495.45+747.796+1495.33+747.856+1495.21+747.856L1463.85+747.856C1463.71+747.856+1463.59+747.802+1463.49+747.694C1463.39+747.586+1463.35+747.46+1463.35+747.316L1463.35+744.94C1463.35+744.796+1463.39+744.67+1463.49+744.562C1463.59+744.454+1463.71+744.4+1463.85+744.4L1477.39+744.4L1477.39+736.696C1477.39+736.36+1477.55+736.192+1477.89+736.192L1481.02+736.192C1481.17+736.192+1481.29+736.24+1481.4+736.336C1481.51+736.432+1481.56+736.552+1481.56+736.696L1481.56+744.4L1495.21+744.4C1495.33+744.4+1495.45+744.46+1495.57+744.58C1495.69+744.7+1495.75+744.82+1495.75+744.94L1495.75+747.316Z" opacity="1" fill="#110541"/>
<path d="M1504.85+733.744C1503.89+733.744+1503.23+733.564+1502.86+733.204C1502.48+732.844+1502.3+732.22+1502.3+731.332L1502.3+722.368C1502.3+721.48+1502.5+720.856+1502.89+720.496C1503.29+720.136+1503.94+719.956+1504.85+719.956L1523.86+719.956C1524.2+719.956+1524.37+720.112+1524.37+720.424L1524.37+722.62C1524.37+722.74+1524.32+722.854+1524.22+722.962C1524.13+723.07+1524.01+723.124+1523.86+723.124L1506.91+723.124C1506.69+723.124+1506.56+723.142+1506.51+723.178C1506.46+723.214+1506.44+723.34+1506.44+723.556L1506.44+725.32L1523.32+725.32C1523.44+725.32+1523.56+725.368+1523.68+725.464C1523.8+725.56+1523.86+725.668+1523.86+725.788L1523.86+727.912C1523.86+728.056+1523.8+728.17+1523.68+728.254C1523.56+728.338+1523.44+728.38+1523.32+728.38L1506.44+728.38L1506.44+730.072C1506.44+730.336+1506.46+730.492+1506.49+730.54C1506.53+730.588+1506.68+730.612+1506.94+730.612L1524.01+730.612C1524.41+730.612+1524.62+730.768+1524.62+731.08L1524.62+733.168C1524.62+733.552+1524.41+733.744+1524.01+733.744L1515.44+733.744L1515.44+736.876L1529.05+736.876C1529.17+736.876+1529.29+736.93+1529.41+737.038C1529.53+737.146+1529.59+737.26+1529.59+737.38L1529.59+739.54C1529.59+739.684+1529.53+739.816+1529.41+739.936C1529.29+740.056+1529.17+740.116+1529.05+740.116L1497.69+740.116C1497.35+740.116+1497.19+739.924+1497.19+739.54L1497.19+737.38C1497.19+737.044+1497.35+736.876+1497.69+736.876L1511.3+736.876L1511.3+733.744L1504.85+733.744ZM1524.76+747.928C1524.76+749.776+1523.78+751.216+1521.81+752.248C1519.84+753.28+1517.03+753.796+1513.39+753.796C1509.74+753.796+1506.92+753.28+1504.94+752.248C1502.96+751.216+1501.97+749.776+1501.97+747.928C1501.97+746.104+1502.96+744.676+1504.94+743.644C1506.92+742.612+1509.74+742.096+1513.39+742.096C1517.03+742.096+1519.84+742.612+1521.81+743.644C1523.78+744.676+1524.76+746.104+1524.76+747.928ZM1513.39+745.228C1510.99+745.228+1509.17+745.51+1507.93+746.074C1506.7+746.638+1506.08+747.268+1506.08+747.964C1506.08+748.66+1506.7+749.296+1507.95+749.872C1509.2+750.448+1511.01+750.736+1513.39+750.736C1515.76+750.736+1517.57+750.448+1518.8+749.872C1520.04+749.296+1520.66+748.66+1520.66+747.964C1520.66+747.268+1520.05+746.638+1518.82+746.074C1517.6+745.51+1515.79+745.228+1513.39+745.228Z" opacity="1" fill="#110541"/>
<path d="M1558.57+722.764C1558.57+723.316+1558.55+723.958+1558.51+724.69C1558.48+725.422+1558.42+726.202+1558.33+727.03C1558.25+727.858+1558.15+728.704+1558.03+729.568C1557.91+730.432+1557.76+731.272+1557.59+732.088L1562.89+732.088C1563.01+732.088+1563.13+732.154+1563.25+732.286C1563.37+732.418+1563.43+732.544+1563.43+732.664L1563.43+735.004C1563.43+735.124+1563.37+735.244+1563.25+735.364C1563.13+735.484+1563.01+735.544+1562.89+735.544L1548.99+735.544L1548.99+740.908L1556.01+740.908C1556.99+740.908+1557.64+741.076+1557.94+741.412C1558.24+741.748+1558.39+742.444+1558.39+743.5L1558.39+753.184C1558.39+753.304+1558.33+753.418+1558.22+753.526C1558.12+753.634+1558+753.688+1557.88+753.688L1554.75+753.688C1554.61+753.688+1554.48+753.634+1554.37+753.526C1554.26+753.418+1554.21+753.304+1554.21+753.184L1554.21+744.904C1554.21+744.664+1554.16+744.508+1554.07+744.436C1553.97+744.364+1553.79+744.328+1553.53+744.328L1535.81+744.328C1535.69+744.328+1535.57+744.286+1535.45+744.202C1535.33+744.118+1535.27+744.016+1535.27+743.896L1535.27+741.34C1535.27+741.196+1535.33+741.088+1535.45+741.016C1535.57+740.944+1535.69+740.908+1535.81+740.908L1544.85+740.908L1544.85+735.544L1531.53+735.544C1531.39+735.544+1531.27+735.484+1531.17+735.364C1531.07+735.244+1531.03+735.124+1531.03+735.004L1531.03+732.664C1531.03+732.28+1531.19+732.088+1531.53+732.088L1553.78+732.088C1553.99+730.912+1554.17+729.694+1554.32+728.434C1554.46+727.174+1554.53+725.824+1554.53+724.384C1554.53+724.048+1554.45+723.838+1554.28+723.754C1554.11+723.67+1553.86+723.628+1553.53+723.628L1536.75+723.628C1536.63+723.628+1536.51+723.58+1536.39+723.484C1536.27+723.388+1536.21+723.28+1536.21+723.16L1536.21+720.676C1536.21+720.532+1536.27+720.424+1536.39+720.352C1536.51+720.28+1536.63+720.244+1536.75+720.244L1556.19+720.244C1556.96+720.244+1557.55+720.442+1557.95+720.838C1558.36+721.234+1558.57+721.876+1558.57+722.764Z" opacity="1" fill="#110541"/>
</g>
</g>
</svg>
